HIERARCHY
ROOT Hips
{
    OFFSET 0.0 0.0 0.0
    CHANNELS 6 Xposition Yposition Zposition Zrotation Xrotation Yrotation
    JOINT LeftUpLeg
    {
        OFFSET 15.35291498182699 0.0 0.0
        CHANNELS 3 Zrotation Xrotation Yrotation
        JOINT LeftLeg
        {
            OFFSET 0.0 0.0 -61.809889125568475
            CHANNELS 3 Zrotation Xrotation Yrotation
            JOINT LeftFoot
            {
                OFFSET 0.0 0.0 -44.61541047574281
                CHANNELS 3 Zrotation Xrotation Yrotation
                JOINT LeftToeBase
                {
                    OFFSET 0.0 -13.009709794533848 0.0
                    CHANNELS 3 Zrotation Xrotation Yrotation
                    End Site
                    {
                        OFFSET 0 0 0
                    }
                }
            }
        }
    }
    JOINT RightUpLeg
    {
        OFFSET -15.35291498182699 0.0 0.0
        CHANNELS 3 Zrotation Xrotation Yrotation
        JOINT RightLeg
        {
            OFFSET 0.0 0.0 -61.809889125568475
            CHANNELS 3 Zrotation Xrotation Yrotation
            JOINT RightFoot
            {
                OFFSET 0.0 0.0 -44.61541047574281
                CHANNELS 3 Zrotation Xrotation Yrotation
                JOINT RightToeBase
                {
                    OFFSET 0.0 -13.009709794533848 0.0
                    CHANNELS 3 Zrotation Xrotation Yrotation
                    End Site
                    {
                        OFFSET 0 0 0
                    }
                }
            }
        }
    }
    JOINT Spine
    {
        OFFSET 0.0 0.0 11.173983461003566
        CHANNELS 3 Zrotation Xrotation Yrotation
        JOINT Spine1
        {
            OFFSET 0.0 0.0 10.939441773789088
            CHANNELS 3 Zrotation Xrotation Yrotation
            JOINT Spine2
            {
                OFFSET 0.0 0.0 10.939441773789088
                CHANNELS 3 Zrotation Xrotation Yrotation
                JOINT Spine3
                {
                    OFFSET 0.0 0.0 10.939441773789085
                    CHANNELS 3 Zrotation Xrotation Yrotation
                    JOINT Spine4
                    {
                        OFFSET 0.0 0.0 10.939441773789092
                        CHANNELS 3 Zrotation Xrotation Yrotation
                        JOINT RightShoulder
                        {
                            OFFSET -25.647313787561764 0.0 0.0
                            CHANNELS 3 Zrotation Xrotation Yrotation
                            JOINT RightArm
                            {
                                OFFSET -32.461614658321594 0.0 0.0
                                CHANNELS 3 Zrotation Xrotation Yrotation
                                JOINT RightForeArm
                                {
                                    OFFSET -32.729501992246405 0.0 0.0
                                    CHANNELS 3 Zrotation Xrotation Yrotation
                                    JOINT RightHand
                                    {
                                        OFFSET -11.703768783635535 0.0 0.0
                                        CHANNELS 3 Zrotation Xrotation Yrotation
                                        End Site
                                        {
                                            OFFSET 0 0 0
                                        }
                                    }
                                }
                            }
                        }
                        JOINT LeftShoulder
                        {
                            OFFSET 25.647313787561764 0.0 0.0
                            CHANNELS 3 Zrotation Xrotation Yrotation
                            JOINT LeftArm
                            {
                                OFFSET 32.461614658321594 0.0 0.0
                                CHANNELS 3 Zrotation Xrotation Yrotation
                                JOINT LeftForeArm
                                {
                                    OFFSET 32.729501992246405 0.0 0.0
                                    CHANNELS 3 Zrotation Xrotation Yrotation
                                    JOINT LeftHand
                                    {
                                        OFFSET 11.703768783635535 0.0 0.0
                                        CHANNELS 3 Zrotation Xrotation Yrotation
                                        End Site
                                        {
                                            OFFSET 0 0 0
                                        }
                                    }
                                }
                            }
                        }
                        JOINT Neck
                        {
                            OFFSET 0.0 0.0 10.93944187239606
                            CHANNELS 3 Zrotation Xrotation Yrotation
                            JOINT Head
                            {
                                OFFSET 0.0 0.0 26.40107482337893
                                CHANNELS 3 Zrotation Xrotation Yrotation
                                End Site
                                {
                                    OFFSET 0 0 0
                                }
                            }
                        }
                    }
                }
            }
        }
    }
}
MOTION
Frames: 4
Frame Time: 0.03333333333333333
-66.054603266716 5.518704530596733 424.21241168975826 -38.86812578137804 -48.961344316147574 -37.58374232398682 -11.657292470241817 -12.683014043744041 -12.798556796824775 -32.73480847110938 29.179349626572133 -23.890597493841582 108.22392719646201 -9.54166404439055e-15 92.42579568136964 0.0 0.0 3.1805546814635168e-15 -39.13024253554426 -24.98005569349814 -24.393895930442422 0.6112153902278721 0.36374221429977843 -30.20003952419906 153.75818735974863 -1.5902773407317584e-15 -80.20586211612314 0.0 0.0 0.0 -10.450110435726344 -23.787305101964375 -24.359803324423627 1.5902773407317584e-15 0.0 0.0 1.5902773407317584e-15 0.0 0.0 1.5902773407317584e-15 0.0 0.0 1.5902773407317584e-15 0.0 0.0 -139.5734535372325 -37.70415056213356 172.72632105454528 13.276762124466087 2.7589022445726972e-15 -4.59150828790441e-17 180.0 55.168583974116736 -180.0 0.0 0.0 1.987846675914698e-16 -49.14974153403651 -2.9394503067597264 -113.71530119586599 -30.27835083949163 -9.210513798587936e-15 -2.4919446827802318e-15 180.0 -25.911061778054112 180.0 0.0 0.0 -1.5902773407317584e-15 38.09953217989671 8.375449708650256e-15 7.202445741852935e-15 0.0 0.0 0.0
-66.15152342319489 5.495588663220406 424.1580276489258 -38.88060973466898 -48.69235560548054 -37.52097994162136 -11.78124833892279 -12.72463690682158 -12.989902124649456 -33.393275581748455 29.467540751155585 -23.534722525182517 109.17614571816974 0.0 92.39817506943517 0.0 0.0 0.0 -38.040319994690456 -25.048327449850014 -24.09731274452697 -0.6647819963429192 -0.39650219187759844 -30.906368819614027 151.66817492542194 1.5902773407317584e-15 -64.0509943877523 0.0 0.0 0.0 -10.418214089044397 -23.98121025144293 -24.500150021180207 1.5902773407317584e-15 0.0 0.0 1.5902773407317584e-15 0.0 0.0 1.5902773407317584e-15 0.0 0.0 1.5902773407317584e-15 0.0 0.0 -138.94245758655552 -36.65418418943397 172.92527585076186 13.742391077887687 -3.1883034226043473e-15 -3.66634422952785e-16 180.0 53.47097196806549 -180.0 -2.694034605743505e-36 -1.5530052155583578e-18 -1.987846675914698e-16 -49.62279301914528 -2.9252496590501846 -113.8533801891857 -29.3474002968999 8.056787855487427e-16 -3.0768181253197594e-15 -180.0 -24.198032847540674 180.0 0.0 0.0 0.0 37.98476162811267 1.795177542664408e-14 -2.8149554304946646e-15 0.0 0.0 0.0
-66.23745760917664 5.388008791208267 424.1509014129639 -37.86856146043924 -48.44235306603039 -36.79128091110509 -12.362910218608716 -13.182947404648889 -13.126596289622514 -33.730208190593764 29.64218452198477 -23.404622074213464 109.75180070709946 -6.3611093629270335e-15 92.44157433181617 0.0 0.0 -3.1805546814635168e-15 -36.70692401057375 -25.411986751930925 -23.630766481986687 -4.760148646846292 -2.7908990383707257 -32.914165893606565 144.25548486575252 -3.1805546814635168e-15 -53.42341559289449 0.0 0.0 0.0 -10.712523758908391 -24.642432805125082 -25.03578070219853 0.0 0.0 0.0 0.0 0.0 0.0 0.0 0.0 0.0 0.0 0.0 0.0 -138.46098778863058 -35.62339698941789 172.69998723209844 14.542166507449211 5.736500925447621e-15 -8.822173506887604e-16 -180.0 51.07588645135705 180.0 0.0 0.0 0.0 -49.989695624190375 -3.5039746639817286 -113.71503073699617 -28.881368644364674 -3.0800692813359783e-15 -7.931590659823306e-16 -180.0 -23.231487570489737 -180.0 0.0 0.0 1.5902773407317584e-15 37.48138993520644 -1.924130090007428e-14 -1.0288403906164689e-15 -1.5902773407317584e-15 0.0 0.0
-66.32940967082978 5.194915249943733 424.1915462493897 -35.23928363766044 -48.79791141115331 -34.92395874061579 -13.96826355615561 -13.821857842557812 -13.225620180147944 -33.945444757449636 29.661442691105727 -23.445393448647245 109.92646332760788 6.3611093629270335e-15 92.47316297212983 0.0 0.0 -3.1805546814635164e-15 -34.034361202606526 -26.588063413828863 -21.710712430986188 -9.856376378733303 -5.380053388735047 -34.89409256161956 137.7178170711005 1.5902773407317584e-15 -47.798818511481755 0.0 0.0 0.0 -11.087847510775612 -26.00492553713976 -25.10628662843866 3.1805546814635168e-15 0.0 0.0 3.1805546814635168e-15 0.0 0.0 3.1805546814635168e-15 0.0 0.0 3.1805546814635168e-15 0.0 0.0 -139.29494663259504 -34.78343419261254 172.34541305369112 15.14514798774918 5.349413610778473e-15 6.424435055618432e-16 -180.0 48.905348437446605 -180.0 0.0 -6.3611093629270335e-15 0.0 -50.875601766281044 -4.202196095232029 -113.51117634595151 -29.475410736976862 3.885031581733514e-15 -2.2668007791802476e-15 180.0 -25.35845716858086 -180.0 0.0 0.0 4.969616689786745e-17 35.762368344325346 1.7551719070759487e-14 5.198776333915838e-15 0.0 0.0 -1.5902773407317588e-15
